# xmcd CD database file
#
# Track frame offsets:
#	182
#	23060
#	46917
#	67950
#	97172
#	127275
#	143692
#	162440
#	181320
#	202562
#	229565
#	243662
#	265947
#
# Disc length: 4096 seconds
#
# Revision: 0
# Processed by: cddbd v1.4PL0 Copyright (c) Steve Scherf et al.
# Submitted via: CDex 1.50beta9
#
DISCID=b00ffe0d
DTITLE=Abate/Chrupcala/Wood/Anter - My Buddy
DYEAR=1994
DGENRE=Jazz
TTITLE0=Bopature
TTITLE1=My Buddy
TTITLE2=Tacos
TTITLE3=Song For Michelle
TTITLE4=Expresso
TTITLE5=Bubble Up
TTITLE6=Stella By Starlight
TTITLE7=Mark One, Mark Blue
TTITLE8=Standing Proud
TTITLE9=Cafe Roscoe
TTITLE10=For Tony
TTITLE11=Zack-O-Motion
TTITLE12=Stardust
EXTD=YEAR: 1994
EXTT0=
EXTT1=
EXTT2=
EXTT3=
EXTT4=
EXTT5=
EXTT6=
EXTT7=
EXTT8=
EXTT9=
EXTT10=
EXTT11=
EXTT12=
PLAYORDER=
